<svg xmlns="http://www.w3.org/2000/svg" viewBox="0 0 1200 800" width="1200" height="800">
<rect width="1200" height="800" fill="#ffffff"/><defs><pattern id="g" width="24" height="24" patternUnits="userSpaceOnUse"><path d="M24 0H0V24" fill="none" stroke="#eef0f2" stroke-width="1"/></pattern></defs><rect width="1200" height="800" fill="url(#g)"/>
<rect x="0" y="0" width="220" height="800" rx="0" fill="none" stroke="#9aa0a6" stroke-width="2"/>
<rect x="32" y="44.5" width="130" height="18.2" rx="3" fill="#dfe2e5"/>
<rect x="32" y="100" width="156" height="44" rx="22" fill="none" stroke="#9aa0a6" stroke-width="2"/>
<rect x="66" y="116.25" width="90" height="11.899999999999999" rx="3" fill="#dfe2e5"/>
<rect x="40" y="187.25" width="90" height="11.899999999999999" rx="3" fill="#dfe2e5"/>
<rect x="40" y="231.25" width="90" height="11.899999999999999" rx="3" fill="#dfe2e5"/>
<rect x="40" y="275.25" width="90" height="11.899999999999999" rx="3" fill="#dfe2e5"/>
<rect x="40" y="319.25" width="90" height="11.899999999999999" rx="3" fill="#dfe2e5"/>
<rect x="220" y="0" width="380" height="800" rx="0" fill="none" stroke="#9aa0a6" stroke-width="2"/>
<rect x="236" y="24" width="348" height="104" rx="10" fill="none" stroke="#9aa0a6" stroke-width="2"/>
<rect x="236" y="144" width="348" height="104" rx="10" fill="none" stroke="#9aa0a6" stroke-width="2"/>
<rect x="236" y="264" width="348" height="104" rx="10" fill="none" stroke="#9aa0a6" stroke-width="2"/>
<rect x="236" y="384" width="348" height="104" rx="10" fill="none" stroke="#9aa0a6" stroke-width="2"/>
<rect x="236" y="504" width="348" height="104" rx="10" fill="none" stroke="#9aa0a6" stroke-width="2"/>
<rect x="236" y="624" width="348" height="104" rx="10" fill="none" stroke="#9aa0a6" stroke-width="2"/>
<circle cx="270" cy="64" r="18" fill="none" stroke="#9aa0a6" stroke-width="2"/>
<rect x="302" y="48.5" width="180" height="12.6" rx="3" fill="#dfe2e5"/>
<rect x="302" y="80.75" width="250" height="10.5" rx="3" fill="#dfe2e5"/>
<circle cx="270" cy="184" r="18" fill="none" stroke="#9aa0a6" stroke-width="2"/>
<rect x="302" y="168.5" width="180" height="12.6" rx="3" fill="#dfe2e5"/>
<rect x="302" y="200.75" width="250" height="10.5" rx="3" fill="#dfe2e5"/>
<circle cx="270" cy="304" r="18" fill="none" stroke="#9aa0a6" stroke-width="2"/>
<rect x="302" y="288.5" width="180" height="12.6" rx="3" fill="#dfe2e5"/>
<rect x="302" y="320.75" width="250" height="10.5" rx="3" fill="#dfe2e5"/>
<circle cx="270" cy="424" r="18" fill="none" stroke="#9aa0a6" stroke-width="2"/>
<rect x="302" y="408.5" width="180" height="12.6" rx="3" fill="#dfe2e5"/>
<rect x="302" y="440.75" width="250" height="10.5" rx="3" fill="#dfe2e5"/>
<circle cx="270" cy="544" r="18" fill="none" stroke="#9aa0a6" stroke-width="2"/>
<rect x="302" y="528.5" width="180" height="12.6" rx="3" fill="#dfe2e5"/>
<rect x="302" y="560.75" width="250" height="10.5" rx="3" fill="#dfe2e5"/>
<circle cx="270" cy="664" r="18" fill="none" stroke="#9aa0a6" stroke-width="2"/>
<rect x="302" y="648.5" width="180" height="12.6" rx="3" fill="#dfe2e5"/>
<rect x="302" y="680.75" width="250" height="10.5" rx="3" fill="#dfe2e5"/>
<rect x="650" y="64.5" width="420" height="23.799999999999997" rx="3" fill="#dfe2e5"/>
<rect x="650" y="116" width="300" height="11.2" rx="3" fill="#dfe2e5"/>
<rect x="650" y="187.25" width="480" height="11.899999999999999" rx="3" fill="#dfe2e5"/>
<rect x="650" y="221.25" width="480" height="11.899999999999999" rx="3" fill="#dfe2e5"/>
<rect x="650" y="255.25" width="480" height="11.899999999999999" rx="3" fill="#dfe2e5"/>
<rect x="650" y="289.25" width="480" height="11.899999999999999" rx="3" fill="#dfe2e5"/>
<rect x="650" y="323.25" width="480" height="11.899999999999999" rx="3" fill="#dfe2e5"/>
<rect x="650" y="357.25" width="480" height="11.899999999999999" rx="3" fill="#dfe2e5"/>
<rect x="650" y="391.25" width="260" height="11.899999999999999" rx="3" fill="#dfe2e5"/>
<rect x="650" y="470" width="230" height="150" rx="10" fill="none" stroke="#9aa0a6" stroke-width="2"/><path d="M650 470L880 620M880 470L650 620" stroke="#c4c8cc" stroke-width="1.5"/>
<rect x="900" y="470" width="230" height="150" rx="10" fill="none" stroke="#9aa0a6" stroke-width="2"/><path d="M900 470L1130 620M1130 470L900 620" stroke="#c4c8cc" stroke-width="1.5"/>
<rect x="650" y="670" width="480" height="64" rx="32" fill="none" stroke="#9aa0a6" stroke-width="2"/>
<rect x="680" y="696.25" width="200" height="11.899999999999999" rx="3" fill="#dfe2e5"/>
</svg>
